<svg version="1.1" xmlns="http://www.w3.org/2000/svg" viewBox="0 0 269.6000366210937 315.2000427246094" width="269.6000366210937" height="315.2000427246094" class="excalidraw-svg" stroke="black" strokeWidth="5" fill="white">
  <!-- svg-source:excalidraw -->
  
  <defs>
    <style class="style-fonts">
      
    </style>
    
  </defs>
  <g transform="translate(125.29745504708347 123.2274006166912) rotate(0 -18.371561088305782 31.6767198483047)" stroke="none"><path fill="##ffffff" d="M -10.36,-2.29 Q -10.36,-2.29 -9.78,-5.61 -9.19,-8.94 -8.32,-13.88 -7.45,-18.83 -5.95,-24.43 -4.45,-30.02 -2.71,-36.25 -0.97,-42.48 1.07,-50.12 3.12,-57.76 4.53,-65.16 5.93,-72.57 6.32,-79.31 6.71,-86.05 5.84,-91.01 4.97,-95.97 0.38,-97.70 -4.20,-99.43 -9.22,-97.64 -14.23,-95.85 -20.37,-92.05 -26.52,-88.25 -30.86,-85.10 -35.19,-81.96 -38.64,-78.89 -42.09,-75.82 -45.82,-71.97 -49.55,-68.12 -53.02,-63.64 -56.49,-59.15 -60.11,-53.20 -63.73,-47.26 -65.85,-41.73 -67.98,-36.20 -68.94,-31.01 -69.91,-25.83 -68.93,-18.08 -67.95,-10.33 -64.54,-3.35 -61.14,3.62 -55.23,10.62 -49.32,17.62 -44.90,21.38 -40.49,25.13 -36.15,28.29 -31.82,31.45 -26.30,35.19 -20.78,38.94 -14.32,43.34 -7.86,47.75 0.49,53.14 8.85,58.53 13.93,61.30 19.01,64.06 24.12,66.93 29.23,69.80 35.32,73.99 41.41,78.18 46.46,81.58 51.51,84.97 56.80,89.35 62.09,93.74 66.94,98.73 71.78,103.72 75.12,107.72 78.46,111.71 81.18,116.68 83.91,121.66 85.36,127.10 86.80,132.53 86.92,137.19 87.04,141.84 85.94,146.13 84.83,150.42 82.03,154.91 79.22,159.41 75.23,163.34 71.23,167.27 67.18,170.15 63.13,173.04 57.60,175.58 52.06,178.11 46.07,180.07 40.09,182.03 34.54,183.22 29.00,184.40 22.74,185.15 16.49,185.89 10.87,186.28 5.26,186.66 -1.35,186.48 -7.97,186.29 -13.87,185.85 -19.77,185.41 -26.50,184.27 -33.22,183.13 -40.16,181.51 -47.10,179.90 -52.88,178.30 -58.66,176.70 -64.80,174.32 -70.94,171.93 -77.06,168.80 -83.19,165.66 -87.84,163.01 -92.49,160.36 -96.48,157.55 -100.47,154.73 -104.66,150.69 -108.84,146.66 -112.31,141.94 -115.77,137.23 -118.15,133.07 -120.53,128.90 -122.22,123.60 -123.90,118.29 -124.29,112.52 -124.69,106.75 -124.27,102.17 -123.85,97.60 -122.59,93.21 -121.33,88.82 -118.82,84.11 -116.31,79.39 -112.94,74.97 -109.57,70.56 -106.18,67.16 -102.79,63.75 -98.55,60.67 -94.31,57.59 -89.78,55.14 -85.26,52.70 -77.36,50.02 -69.47,47.35 -64.66,47.23 -59.86,47.11 -52.54,49.19 -45.21,51.28 -39.60,56.91 -34.00,62.55 -31.53,71.54 -29.07,80.52 -29.17,87.89 -29.28,95.26 -30.00,99.60 -30.71,103.95 -31.60,108.18 -32.49,112.41 -34.63,120.09 -36.76,127.76 -38.25,133.61 -39.73,139.45 -40.58,141.37 -41.43,143.28 -42.84,144.82 -44.26,146.36 -46.09,147.37 -47.92,148.37 -49.98,148.74 -52.04,149.11 -54.11,148.81 -56.17,148.50 -58.04,147.55 -59.90,146.60 -61.36,145.11 -62.82,143.61 -63.73,141.73 -64.64,139.84 -64.89,137.77 -65.15,135.69 -64.73,133.64 -64.32,131.60 -63.27,129.79 -62.22,127.98 -60.64,126.60 -59.07,125.22 -57.14,124.42 -55.21,123.62 -53.13,123.47 -51.04,123.32 -49.02,123.85 -46.99,124.38 -45.25,125.53 -43.50,126.67 -42.21,128.32 -40.92,129.96 -40.22,131.93 -39.52,133.90 -39.49,136.00 -39.45,138.09 -40.09,140.08 -40.73,142.07 -41.97,143.75 -43.21,145.44 -44.92,146.64 -46.63,147.84 -48.64,148.43 -50.64,149.02 -52.73,148.94 -54.82,148.85 -56.78,148.11 -58.73,147.37 -60.34,146.04 -61.96,144.71 -63.06,142.93 -64.17,141.16 -64.65,139.12 -65.13,137.09 -64.94,135.01 -64.74,132.93 -64.74,132.93 -64.74,132.93 -63.91,129.92 -63.07,126.91 -61.14,120.00 -59.20,113.10 -57.66,106.34 -56.12,99.59 -55.39,93.92 -54.65,88.26 -54.55,83.65 -54.46,79.04 -57.46,75.15 -60.46,71.26 -64.86,71.35 -69.26,71.44 -75.13,74.00 -81.00,76.57 -86.30,80.61 -91.59,84.65 -95.74,90.40 -99.89,96.16 -101.42,101.14 -102.95,106.13 -102.38,112.65 -101.81,119.17 -98.15,125.76 -94.48,132.35 -88.46,138.07 -82.44,143.80 -78.58,146.31 -74.72,148.82 -69.40,151.44 -64.07,154.05 -58.69,156.09 -53.32,158.12 -48.29,159.63 -43.26,161.13 -36.77,162.26 -30.28,163.39 -24.27,164.14 -18.26,164.90 -13.03,165.28 -7.80,165.65 -1.96,165.57 3.88,165.48 8.74,165.17 13.61,164.87 19.14,164.00 24.68,163.13 28.89,162.33 33.09,161.54 38.05,159.75 43.00,157.96 49.70,154.57 56.40,151.19 61.58,145.90 66.75,140.61 66.85,135.21 66.95,129.81 63.16,122.72 59.37,115.62 55.23,111.26 51.09,106.89 46.39,102.93 41.69,98.97 36.93,95.49 32.18,92.01 26.35,88.24 20.52,84.47 15.59,81.38 10.65,78.28 5.80,75.21 0.95,72.14 -8.04,67.45 -17.04,62.76 -24.01,58.96 -30.98,55.16 -37.33,51.44 -43.68,47.72 -48.43,44.25 -53.17,40.78 -58.98,36.24 -64.79,31.70 -69.09,27.04 -73.38,22.37 -76.40,18.05 -79.41,13.73 -82.34,8.19 -85.27,2.65 -86.58,-2.07 -87.90,-6.79 -88.74,-12.67 -89.59,-18.54 -89.24,-23.99 -88.90,-29.43 -87.59,-36.11 -86.28,-42.78 -83.92,-49.66 -81.55,-56.53 -78.03,-64.26 -74.51,-72.00 -70.62,-77.81 -66.72,-83.63 -62.55,-88.53 -58.37,-93.42 -54.36,-97.25 -50.34,-101.08 -45.70,-105.05 -41.05,-109.02 -36.38,-112.42 -31.71,-115.83 -27.62,-118.02 -23.53,-120.20 -18.83,-122.01 -14.12,-123.83 -5.84,-124.74 2.43,-125.65 9.85,-122.93 17.27,-120.21 21.88,-114.37 26.50,-108.52 28.52,-101.27 30.55,-94.02 30.77,-85.94 31.00,-77.87 30.49,-73.22 29.98,-68.57 28.38,-60.35 26.77,-52.13 24.49,-43.57 22.22,-35.02 20.14,-28.65 18.06,-22.29 16.50,-18.11 14.94,-13.92 13.52,-9.07 12.11,-4.23 11.23,-0.96 10.36,2.29 9.93,3.49 9.51,4.70 8.81,5.77 8.11,6.84 7.17,7.71 6.23,8.58 5.11,9.20 4.00,9.83 2.76,10.16 1.53,10.50 0.25,10.53 -1.02,10.56 -2.27,10.28 -3.52,10.01 -4.67,9.44 -5.81,8.87 -6.79,8.05 -7.77,7.22 -8.52,6.19 -9.27,5.15 -9.75,3.97 -10.24,2.78 -10.42,1.51 -10.61,0.25 -10.48,-1.01 -10.36,-2.29 -10.36,-2.29 L -10.36,-2.29 Z"></path></g><g transform="translate(51.81116236144712 305.2000427246094) rotate(0 103.89443712982329 -54.928781530039885)" stroke="none"><path fill="##ffffff" d="M -8.91,-5.80 Q -8.91,-5.80 -7.41,-8.40 -5.90,-11.01 -3.42,-15.72 -0.94,-20.44 1.82,-24.70 4.59,-28.96 7.30,-32.69 10.01,-36.41 14.57,-41.44 19.13,-46.47 25.34,-52.04 31.56,-57.61 38.34,-62.72 45.13,-67.82 52.77,-72.67 60.40,-77.52 64.41,-79.72 68.42,-81.92 73.19,-84.17 77.95,-86.42 82.91,-88.64 87.86,-90.86 92.12,-92.70 96.37,-94.54 106.57,-98.25 116.77,-101.96 121.46,-103.60 126.14,-105.24 130.30,-106.75 134.46,-108.27 139.91,-109.73 145.36,-111.20 150.47,-112.53 155.58,-113.86 159.91,-114.94 164.24,-116.02 169.03,-117.04 173.82,-118.06 178.77,-118.77 183.71,-119.48 190.57,-120.38 197.43,-121.28 201.56,-121.49 205.69,-121.70 207.60,-121.44 209.51,-121.19 211.24,-120.34 212.96,-119.49 214.33,-118.13 215.69,-116.77 216.55,-115.05 217.42,-113.32 217.68,-111.42 217.94,-109.51 217.59,-107.62 217.23,-105.73 216.29,-104.05 215.34,-102.37 213.91,-101.08 212.48,-99.79 210.72,-99.02 208.95,-98.26 207.03,-98.10 205.11,-97.94 203.24,-98.40 201.37,-98.86 199.75,-99.89 198.12,-100.92 196.91,-102.42 195.70,-103.92 195.03,-105.72 194.36,-107.53 194.31,-109.45 194.25,-111.38 194.81,-113.22 195.37,-115.06 196.49,-116.63 197.61,-118.20 199.17,-119.32 200.73,-120.45 202.57,-121.02 204.41,-121.59 206.34,-121.54 208.26,-121.50 210.07,-120.84 211.88,-120.18 213.38,-118.97 214.89,-117.77 215.93,-116.15 216.97,-114.53 217.44,-112.66 217.91,-110.80 217.76,-108.88 217.60,-106.96 216.85,-105.19 216.09,-103.41 214.81,-101.98 213.53,-100.54 211.85,-99.59 210.18,-98.64 208.29,-98.27 206.40,-97.90 206.40,-97.90 206.40,-97.90 199.97,-97.83 193.54,-97.76 186.02,-96.89 178.50,-96.01 169.95,-94.18 161.41,-92.35 156.39,-90.94 151.38,-89.53 146.73,-88.18 142.07,-86.84 137.89,-85.39 133.71,-83.94 129.05,-82.26 124.39,-80.58 119.02,-78.41 113.64,-76.24 105.85,-72.86 98.06,-69.48 93.38,-67.10 88.70,-64.72 81.14,-60.67 73.57,-56.62 69.80,-54.15 66.02,-51.68 59.66,-47.22 53.30,-42.77 47.77,-38.17 42.24,-33.56 37.85,-29.36 33.45,-25.15 29.87,-21.10 26.28,-17.05 23.01,-13.25 19.74,-9.44 16.10,-4.25 12.46,0.93 10.69,3.37 8.91,5.80 8.09,6.78 7.27,7.76 6.23,8.52 5.19,9.28 4.01,9.77 2.82,10.25 1.55,10.44 0.28,10.63 -0.98,10.51 -2.26,10.39 -3.47,9.97 -4.68,9.55 -5.76,8.85 -6.83,8.15 -7.71,7.21 -8.58,6.28 -9.21,5.16 -9.84,4.04 -10.18,2.80 -10.52,1.56 -10.55,0.28 -10.59,-0.99 -10.32,-2.24 -10.04,-3.50 -9.48,-4.65 -8.91,-5.80 -8.91,-5.80 L -8.91,-5.80 Z"></path></g></svg>